# xmcd
#
# Track frame offsets:
#	150
#	20866
#	38169
#	53192
#	82057
#	112878
#	130072
#	149456
#	203214
#	239046
#	259076
#	286490
#	305532
#
# Disc length: 4783 seconds
#
# Revision: 0
# Processed by: cddbd v1.5.2PL0 Copyright (c) Steve Scherf et al.
# Submitted via: audiograbber 1.83.01
#
DISCID=c512ad0d
DTITLE=Ben Harper and Relentless7 - Live From the Montreal International Jazz F
DTITLE=estival
DYEAR=2010
DGENRE=Blues
TTITLE0=Faster Slower Disappear Come Around
TTITLE1=Number with No Name
TTITLE2=Shimmer and Shine
TTITLE3=Lay There and Hate Me
TTITLE4=Why Must You Always Dress In Black
TTITLE5=Red House
TTITLE6=Another Lonely Day
TTITLE7=Keep it Together (So I Can Fall Apart)
TTITLE8=Boots Like These
TTITLE9=Under Pressure
TTITLE10=Up to You Now
TTITLE11=Faithfully Remain
TTITLE12=Serve Your Soul
EXTD=
EXTT0=
EXTT1=
EXTT2=
EXTT3=
EXTT4=
EXTT5=
EXTT6=
EXTT7=
EXTT8=
EXTT9=
EXTT10=
EXTT11=
EXTT12=
PLAYORDER=
